<svg width="20" height="21" viewBox="0 0 20 21" fill="none" xmlns="http://www.w3.org/2000/svg">
<path fill-rule="evenodd" clip-rule="evenodd" d="M2.53852 0.0390625H5.92449C7.32676 0.0390625 8.46301 1.18491 8.46301 2.59903V6.01359C8.46301 7.4277 7.32676 8.57355 5.92449 8.57355H2.53852C1.13626 8.57355 0 7.4277 0 6.01359V2.59903C0 1.18491 1.13626 0.0390625 2.53852 0.0390625ZM2.53852 11.5046H5.92449C7.32676 11.5046 8.46301 12.6504 8.46301 14.0645V17.4791C8.46301 18.8923 7.32676 20.0391 5.92449 20.0391H2.53852C1.13626 20.0391 0 18.8923 0 17.4791V14.0645C0 12.6504 1.13626 11.5046 2.53852 11.5046ZM17.4615 11.5046H14.0755C12.6732 11.5046 11.537 12.6504 11.537 14.0645V17.4791C11.537 18.8923 12.6732 20.0391 14.0755 20.0391H17.4615C18.8637 20.0391 20 18.8923 20 17.4791V14.0645C20 12.6504 18.8637 11.5046 17.4615 11.5046Z" fill="#757B8C"/>
</svg>
